<svg version="1.1" xmlns="http://www.w3.org/2000/svg" viewBox="0 0 1727.3628606732564 1940.3994543372633" width="3454.7257213465127" height="3880.7989086745265" filter="invert(93%) hue-rotate(180deg)">
  <!-- svg-source:excalidraw -->
  
  <defs>
    <style class="style-fonts">
      @font-face {
        font-family: "Virgil";
        src: url("https://excalidraw.com/Virgil.woff2");
      }
      @font-face {
        font-family: "Cascadia";
        src: url("https://excalidraw.com/Cascadia.woff2");
      }
      @font-face {
        font-family: "Assistant";
        src: url("https://excalidraw.com/Assistant-Regular.woff2");
      }
    </style>
    
  </defs>
  <rect x="0" y="0" width="1727.3628606732564" height="1940.3994543372633" fill="#f8f9fa"></rect><g transform="translate(802.5842544248203 838.0067235518904) rotate(0 126.3298568725586 12.5)"><text x="0" y="17.52" font-family="Virgil, Segoe UI Emoji" font-size="20px" fill="#1e1e1e" text-anchor="start" style="white-space: pre;" direction="ltr" dominant-baseline="alphabetic">5. Crop random scales v2</text></g><g stroke-linecap="round" transform="translate(782.1278781634287 820.4203902840541) rotate(0 149.83628722345384 31.583138973571124)"><path d="M216.84 3.84 C233.12 4.96, 249.43 7.63, 261.58 10.35 C273.73 13.07, 283.43 16.49, 289.74 20.16 C296.05 23.83, 299.56 28.58, 299.44 32.39 C299.31 36.2, 295.6 39.43, 289.01 43.02 C282.42 46.62, 272.04 51.3, 259.91 53.95 C247.78 56.6, 232.41 57.5, 216.25 58.93 C200.09 60.36, 180.88 62.01, 162.95 62.55 C145.03 63.09, 125.91 63.13, 108.7 62.15 C91.49 61.16, 74.08 58.95, 59.68 56.63 C45.27 54.32, 31.73 51.48, 22.27 48.27 C12.81 45.05, 6.11 41.08, 2.92 37.33 C-0.27 33.58, -0.02 29.36, 3.14 25.76 C6.3 22.16, 12.53 18.82, 21.89 15.72 C31.25 12.63, 44.65 9.73, 59.3 7.2 C73.95 4.67, 92.26 1.72, 109.76 0.54 C127.26 -0.63, 144.42 -0.49, 164.31 0.14 C184.2 0.77, 216.9 3.18, 229.1 4.34 C241.3 5.49, 238.91 6.55, 237.51 7.06 M135.89 -1.02 C152.71 -1.89, 173.07 1.23, 190.6 2.26 C208.13 3.3, 226.66 3.23, 241.08 5.2 C255.5 7.18, 267.56 10.55, 277.1 14.1 C286.64 17.65, 295.07 22.45, 298.34 26.52 C301.61 30.58, 300.45 35.03, 296.72 38.5 C293 41.97, 285.55 44.45, 275.98 47.36 C266.4 50.28, 253.6 53.78, 239.28 55.98 C224.97 58.18, 207.12 59.25, 190.1 60.56 C173.07 61.88, 155.05 63.98, 137.14 63.87 C119.24 63.77, 99 61.72, 82.68 59.92 C66.35 58.12, 51.03 55.97, 39.17 53.07 C27.3 50.16, 18.22 45.97, 11.5 42.5 C4.78 39.03, -0.96 35.74, -1.15 32.24 C-1.35 28.74, 3.38 24.95, 10.31 21.51 C17.24 18.07, 28.39 14.8, 40.41 11.59 C52.43 8.38, 66.73 3.91, 82.44 2.23 C98.15 0.54, 125.78 1.73, 134.66 1.5 C143.55 1.27, 135.13 0.73, 135.76 0.84" stroke="#1e1e1e" stroke-width="2" fill="none"></path></g><g transform="translate(1120.0249142417454 831.6489194245873) rotate(0 136.2798309326172 62.5)"><text x="0" y="17.52" font-family="Virgil, Segoe UI Emoji" font-size="20px" fill="#1e1e1e" text-anchor="start" style="white-space: pre;" direction="ltr" dominant-baseline="alphabetic">- same obb-yolo model</text><text x="0" y="42.519999999999996" font-family="Virgil, Segoe UI Emoji" font-size="20px" fill="#1e1e1e" text-anchor="start" style="white-space: pre;" direction="ltr" dominant-baseline="alphabetic">  used for the second time</text><text x="0" y="67.52" font-family="Virgil, Segoe UI Emoji" font-size="20px" fill="#1e1e1e" text-anchor="start" style="white-space: pre;" direction="ltr" dominant-baseline="alphabetic">  if there where any images</text><text x="0" y="92.52" font-family="Virgil, Segoe UI Emoji" font-size="20px" fill="#1e1e1e" text-anchor="start" style="white-space: pre;" direction="ltr" dominant-baseline="alphabetic">  that were not detected</text><text x="0" y="117.52" font-family="Virgil, Segoe UI Emoji" font-size="20px" fill="#1e1e1e" text-anchor="start" style="white-space: pre;" direction="ltr" dominant-baseline="alphabetic">  the first time</text></g><g transform="translate(817.2705958672307 622.3135605111794) rotate(0 109.19987487792969 12.5)"><text x="0" y="17.52" font-family="Virgil, Segoe UI Emoji" font-size="20px" fill="#1e1e1e" text-anchor="start" style="white-space: pre;" direction="ltr" dominant-baseline="alphabetic">4. Crop random scales</text></g><g stroke-linecap="round" transform="translate(789.2602485252955 593.0225005737769) rotate(0 139.30059358672838 39.80016959620809)"><path d="M112.47 1.11 C127.38 -0.38, 146.32 0.66, 163 1.43 C179.69 2.21, 198.16 3.34, 212.57 5.75 C226.99 8.17, 239.4 12.09, 249.47 15.92 C259.55 19.75, 268.27 24.07, 273.01 28.73 C277.75 33.39, 279.51 39.17, 277.93 43.89 C276.35 48.61, 270.94 52.73, 263.54 57.04 C256.15 61.36, 245.72 66.51, 233.55 69.8 C221.38 73.08, 205.94 75.14, 190.51 76.77 C175.08 78.41, 157.82 79.43, 140.99 79.61 C124.15 79.79, 105.44 79.66, 89.49 77.88 C73.53 76.09, 57.83 72.13, 45.27 68.9 C32.71 65.67, 21.45 62.54, 14.12 58.51 C6.8 54.47, 2.72 49.41, 1.32 44.67 C-0.08 39.93, 1.4 34.91, 5.73 30.07 C10.06 25.22, 17.29 19.46, 27.31 15.61 C37.34 11.76, 49.57 9.64, 65.9 6.96 C82.23 4.29, 113.33 0.74, 125.3 -0.43 C137.27 -1.59, 137.62 -0.74, 137.73 -0.01 M179.84 2.96 C195.8 3.6, 212.08 4.58, 225.29 7.46 C238.5 10.33, 250.65 16.06, 259.12 20.22 C267.58 24.39, 273 27.87, 276.06 32.44 C279.12 37.02, 280.52 42.97, 277.49 47.69 C274.47 52.41, 267.06 56.87, 257.92 60.74 C248.78 64.62, 236.2 67.9, 222.65 70.95 C209.1 74, 192.66 77.63, 176.62 79.03 C160.58 80.44, 142.92 80.1, 126.43 79.38 C109.94 78.66, 92.64 77.08, 77.69 74.73 C62.74 72.38, 48.36 68.71, 36.73 65.28 C25.1 61.85, 14.27 58.48, 7.91 54.17 C1.54 49.87, -1.9 44.25, -1.46 39.44 C-1.02 34.63, 4.14 29.55, 10.55 25.33 C16.97 21.1, 25.7 17.43, 37.03 14.11 C48.36 10.8, 63.33 7.77, 78.55 5.45 C93.77 3.12, 111.89 0.62, 128.34 0.17 C144.78 -0.28, 169.15 2.54, 177.21 2.76 C185.27 2.98, 177.15 1.17, 176.72 1.47" stroke="#1e1e1e" stroke-width="2" fill="none"></path></g><g transform="translate(1081.153912244586 630.4579355715497) rotate(0 77.97990417480469 12.5)"><text x="0" y="17.52" font-family="Virgil, Segoe UI Emoji" font-size="20px" fill="#1e1e1e" text-anchor="start" style="white-space: pre;" direction="ltr" dominant-baseline="alphabetic">- obb-yolo model</text></g><g transform="translate(245.1633409641246 612.1604504777233) rotate(0 100.23987579345703 25)"><text x="0" y="17.52" font-family="Virgil, Segoe UI Emoji" font-size="20px" fill="#1e1e1e" text-anchor="start" style="white-space: pre;" direction="ltr" dominant-baseline="alphabetic">3. Crop fixed scales</text><text x="0" y="42.519999999999996" font-family="Virgil, Segoe UI Emoji" font-size="20px" fill="#1e1e1e" text-anchor="start" style="white-space: pre;" direction="ltr" dominant-baseline="alphabetic"></text></g><g stroke-linecap="round" transform="translate(212.88953144031518 583.3033076205809) rotate(0 127.14285714285722 42.85714285714289)"><path d="M77.79 3.37 C91.41 0.78, 110.59 0.84, 126.69 0.9 C142.8 0.96, 159.35 1.88, 174.4 3.72 C189.46 5.55, 205.28 8.06, 217.02 11.94 C228.75 15.81, 238.5 22.04, 244.81 26.96 C251.13 31.88, 254.94 36.21, 254.91 41.45 C254.89 46.7, 250.88 53.1, 244.66 58.43 C238.44 63.77, 228.71 69.57, 217.57 73.46 C206.44 77.35, 192.53 79.62, 177.84 81.78 C163.16 83.95, 145.77 86.2, 129.45 86.44 C113.12 86.69, 95 85.56, 79.89 83.28 C64.79 81, 50.53 76.86, 38.81 72.79 C27.1 68.71, 16.04 63.59, 9.58 58.82 C3.11 54.05, 0.2 49.47, 0.02 44.18 C-0.15 38.89, 2.62 32.35, 8.54 27.05 C14.46 21.76, 23.45 16.63, 35.54 12.43 C47.64 8.24, 72.45 3.42, 81.13 1.87 C89.8 0.32, 86.55 2.29, 87.6 3.15 M177.58 2.88 C192.5 4.31, 207.99 7.79, 219.42 11.57 C230.85 15.36, 240.23 20.14, 246.18 25.58 C252.13 31.02, 255.65 38.61, 255.11 44.2 C254.57 49.79, 249.66 54.17, 242.93 59.11 C236.2 64.05, 225.91 69.9, 214.73 73.83 C203.55 77.76, 190.81 80.46, 175.84 82.68 C160.88 84.9, 141.21 87.48, 124.93 87.16 C108.65 86.84, 93.19 82.94, 78.16 80.76 C63.13 78.59, 46.11 77.83, 34.75 74.11 C23.39 70.4, 15.62 63.72, 10.01 58.46 C4.4 53.2, 0.84 48.14, 1.08 42.54 C1.33 36.94, 5.23 29.88, 11.47 24.83 C17.72 19.79, 26.97 15.67, 38.52 12.26 C50.08 8.85, 65.65 6.4, 80.81 4.37 C95.96 2.35, 113.54 0.32, 129.46 0.13 C145.38 -0.06, 168.59 2.34, 176.31 3.23 C184.04 4.13, 176.55 4.82, 175.8 5.51" stroke="#1e1e1e" stroke-width="2" fill="none"></path></g><g transform="translate(10 613.764451666653) rotate(0 92.29988861083984 12.5)"><text x="0" y="17.52" font-family="Virgil, Segoe UI Emoji" font-size="20px" fill="#1e1e1e" text-anchor="start" style="white-space: pre;" direction="ltr" dominant-baseline="alphabetic">- no-obb-yolo model</text></g><g transform="translate(534.3935863296242 33) rotate(0 91.17990112304688 12.5)"><text x="0" y="17.52" font-family="Virgil, Segoe UI Emoji" font-size="20px" fill="#1e1e1e" text-anchor="start" style="white-space: pre;" direction="ltr" dominant-baseline="alphabetic">1. Download images</text></g><g stroke-linecap="round" transform="translate(511.3935863296242 10) rotate(0 114 37.5)"><path d="M159.49 2.88 C173.82 4.09, 188.38 7.64, 198.8 11.58 C209.21 15.51, 217.09 21.48, 221.97 26.49 C226.85 31.51, 229.67 36.82, 228.06 41.67 C226.45 46.52, 220.14 51.14, 212.31 55.61 C204.47 60.08, 193.61 65.36, 181.06 68.5 C168.51 71.63, 152.02 73.41, 137.02 74.41 C122.02 75.41, 106.12 75.41, 91.05 74.48 C75.97 73.55, 59.26 72.01, 46.56 68.83 C33.86 65.65, 22.36 59.95, 14.85 55.4 C7.35 50.84, 2.96 46.35, 1.52 41.48 C0.07 36.62, 1.47 31.15, 6.19 26.22 C10.92 21.29, 19.62 15.89, 29.88 11.9 C40.14 7.91, 53.79 4.27, 67.75 2.28 C81.71 0.3, 96.97 -0.34, 113.64 -0.02 C130.3 0.31, 157.67 3.16, 167.75 4.25 C177.83 5.34, 174.95 5.76, 174.11 6.51 M74.09 2.93 C86.98 0.77, 104.25 0.53, 119.42 0.81 C134.59 1.09, 151.16 2.16, 165.13 4.6 C179.11 7.05, 193.22 11.81, 203.26 15.48 C213.29 19.16, 221.51 22.12, 225.33 26.67 C229.15 31.22, 228.95 37.42, 226.18 42.78 C223.4 48.14, 217.29 54.67, 208.7 58.84 C200.11 63.02, 187.55 65.03, 174.64 67.83 C161.72 70.63, 146.35 74.86, 131.2 75.66 C116.06 76.47, 98.69 74.22, 83.77 72.64 C68.85 71.05, 53.39 69.12, 41.69 66.14 C29.99 63.15, 20.33 59.17, 13.58 54.72 C6.83 50.28, 2.25 44.48, 1.2 39.47 C0.15 34.46, 1.93 29.42, 7.28 24.68 C12.63 19.94, 22.28 14.78, 33.31 11.02 C44.33 7.27, 66.75 3.33, 73.42 2.15 C80.08 0.98, 72.41 3.34, 73.32 3.95" stroke="#1e1e1e" stroke-width="2" fill="none"></path></g><g transform="translate(761.1876300849508 14.668926020709137) rotate(0 135.13986206054688 37.5)"><text x="0" y="17.52" font-family="Virgil, Segoe UI Emoji" font-size="20px" fill="#1e1e1e" text-anchor="start" style="white-space: pre;" direction="ltr" dominant-baseline="alphabetic">- GBIF API</text><text x="0" y="42.519999999999996" font-family="Virgil, Segoe UI Emoji" font-size="20px" fill="#1e1e1e" text-anchor="start" style="white-space: pre;" direction="ltr" dominant-baseline="alphabetic">- Already downloaded ID's </text><text x="0" y="67.52" font-family="Virgil, Segoe UI Emoji" font-size="20px" fill="#1e1e1e" text-anchor="start" style="white-space: pre;" direction="ltr" dominant-baseline="alphabetic">  removed from csv file</text></g><g transform="translate(528.7137118418729 335.0191045544958) rotate(0 89.29988861083979 12.5)"><text x="0" y="17.52" font-family="Virgil, Segoe UI Emoji" font-size="20px" fill="#1e1e1e" text-anchor="start" style="white-space: pre;" direction="ltr" dominant-baseline="alphabetic">2. Classify images</text></g><g stroke-linecap="round" transform="translate(510.71371184187285 314.0191045544958) rotate(0 109.49999999999994 36.5)"><path d="M100.5 -0.56 C114.5 -1.46, 131.48 -0.3, 145.3 1.54 C159.12 3.38, 172.68 6.92, 183.43 10.49 C194.17 14.06, 204.01 18.58, 209.77 22.94 C215.53 27.31, 218.27 31.72, 217.99 36.69 C217.7 41.66, 214 48.11, 208.07 52.76 C202.13 57.41, 193.37 61.36, 182.38 64.59 C171.38 67.83, 156.46 70.75, 142.12 72.18 C127.78 73.61, 111.11 73.73, 96.34 73.16 C81.56 72.58, 66.22 71.52, 53.45 68.75 C40.69 65.98, 28.18 60.65, 19.74 56.52 C11.29 52.39, 5.69 48.56, 2.78 43.95 C-0.12 39.33, -0.97 33.73, 2.29 28.84 C5.54 23.95, 13.18 18.65, 22.31 14.61 C31.44 10.57, 41.49 7.15, 57.07 4.58 C72.64 2.01, 103.73 -0.43, 115.75 -0.82 C127.78 -1.21, 129.28 1.36, 129.22 2.24 M120.3 -0.12 C134.79 -0.17, 151.2 1.94, 164 4.43 C176.79 6.92, 188.34 10.96, 197.08 14.83 C205.83 18.7, 212.96 22.61, 216.46 27.62 C219.95 32.64, 221.05 39.86, 218.05 44.94 C215.05 50.02, 207.04 54.13, 198.45 58.08 C189.87 62.04, 179.12 66.31, 166.54 68.65 C153.96 71, 137.93 71.94, 122.99 72.15 C108.05 72.36, 91.3 71.2, 76.88 69.93 C62.46 68.67, 47.55 67.81, 36.47 64.55 C25.39 61.29, 16.71 55.21, 10.42 50.37 C4.12 45.54, -1.13 40.06, -1.32 35.54 C-1.51 31.02, 3.22 27.59, 9.28 23.27 C15.34 18.94, 24.18 13.36, 35.05 9.57 C45.93 5.78, 60.57 1.94, 74.53 0.51 C88.48 -0.92, 111.11 0.83, 118.76 0.98 C126.41 1.12, 120.56 0.75, 120.41 1.37" stroke="#1e1e1e" stroke-width="2" fill="none"></path></g><g transform="translate(758.364898454342 324.83088771806223) rotate(0 156.56980895996094 12.5)"><text x="0" y="17.52" font-family="Virgil, Segoe UI Emoji" font-size="20px" fill="#1e1e1e" text-anchor="start" style="white-space: pre;" direction="ltr" dominant-baseline="alphabetic">- Uses medium-no-obb-yolo model</text></g><g mask="url(#mask-yh-VdyIdlKLAYa0ZPO2GM)" stroke-linecap="round"><g transform="translate(517.5267159222122 384.9576144526135) rotate(0 -68.49456658898117 98.92779262264946)"><path d="M-0.66 0.44 C-16.38 15.65, -71.84 57.7, -94.65 90.44 C-117.45 123.18, -130.5 179.15, -137.48 196.9 M1.19 -0.37 C-14.1 14.54, -68.97 55.52, -92.25 88.53 C-115.53 121.54, -131.21 179.54, -138.5 197.71" stroke="#1e1e1e" stroke-width="2" fill="none"></path></g><g transform="translate(517.5267159222122 384.9576144526135) rotate(0 -68.49456658898117 98.92779262264946)"><path d="M-138.87 172.71 C-138.2 178.52, -138.16 185.51, -138.5 197.71 M-138.87 172.71 C-139.48 179.06, -137.84 182.99, -138.5 197.71" stroke="#1e1e1e" stroke-width="2" fill="none"></path></g><g transform="translate(517.5267159222122 384.9576144526135) rotate(0 -68.49456658898117 98.92779262264946)"><path d="M-122.72 178.33 C-126.4 182.51, -130.76 187.98, -138.5 197.71 M-122.72 178.33 C-126.91 183.31, -128.82 186.01, -138.5 197.71" stroke="#1e1e1e" stroke-width="2" fill="none"></path></g></g><mask id="mask-yh-VdyIdlKLAYa0ZPO2GM"><rect x="0" y="0" fill="#fff" width="754.5158491001746" height="682.8131996979124"></rect><rect x="318.2235911215754" y="449.9898741497009" fill="#000" width="210.5197296142578" height="50" opacity="1"></rect></mask><g transform="translate(318.2235911215753 449.9898741497009) rotate(0 130.64527040492123 33.639814047277966)"><text x="105.2598648071289" y="17.52" font-family="Virgil, Segoe UI Emoji" font-size="20px" fill="#1e1e1e" text-anchor="middle" style="white-space: pre;" direction="ltr" dominant-baseline="alphabetic">images/classification/</text><text x="105.2598648071289" y="42.519999999999996" font-family="Virgil, Segoe UI Emoji" font-size="20px" fill="#1e1e1e" text-anchor="middle" style="white-space: pre;" direction="ltr" dominant-baseline="alphabetic">fixed</text></g><g mask="url(#mask-6O8U8H3fxKp0aqt_M4MGR)" stroke-linecap="round"><g transform="translate(691.9036676709457 387.78534880819007) rotate(0 85.7007763854374 104.15587025480042)"><path d="M-0.21 0.12 C16.7 14.69, 72.01 53.72, 100.72 88.47 C129.43 123.23, 160.17 188.86, 172.04 208.66 M-1.78 -0.87 C15.55 13.92, 73.97 52.39, 102.87 86.96 C131.77 121.52, 160.01 186.35, 171.61 206.5" stroke="#1e1e1e" stroke-width="2" fill="none"></path></g><g transform="translate(691.9036676709457 387.78534880819007) rotate(0 85.7007763854374 104.15587025480042)"><path d="M153.26 189.52 C158.02 191.86, 164.16 198.79, 171.61 206.5 M153.26 189.52 C159.32 195.75, 165.14 200.99, 171.61 206.5" stroke="#1e1e1e" stroke-width="2" fill="none"></path></g><g transform="translate(691.9036676709457 387.78534880819007) rotate(0 85.7007763854374 104.15587025480042)"><path d="M168.46 181.7 C169.63 185.89, 172.11 194.71, 171.61 206.5 M168.46 181.7 C169.56 190.37, 170.38 198.18, 171.61 206.5" stroke="#1e1e1e" stroke-width="2" fill="none"></path></g></g><mask id="mask-6O8U8H3fxKp0aqt_M4MGR"><rect x="0" y="0" fill="#fff" width="963.3052204418204" height="696.097089317791"></rect><rect x="684.1296732938199" y="450.10996954423763" fill="#000" width="219.11972045898438" height="50" opacity="1"></rect></mask><g transform="translate(684.1296732938199 450.10996954423763) rotate(0 92.90608480134642 41.57121562799887)"><text x="109.55986022949219" y="17.52" font-family="Virgil, Segoe UI Emoji" font-size="20px" fill="#1e1e1e" text-anchor="middle" style="white-space: pre;" direction="ltr" dominant-baseline="alphabetic">images/classification/r</text><text x="109.55986022949219" y="42.519999999999996" font-family="Virgil, Segoe UI Emoji" font-size="20px" fill="#1e1e1e" text-anchor="middle" style="white-space: pre;" direction="ltr" dominant-baseline="alphabetic">andom</text></g><g stroke-linecap="round"><g transform="translate(504.532479301943 350.8626682065716) rotate(0 -95.99886153003143 -10.617389355353737)"><path d="M0.99 0.63 C-30.88 -2.98, -159.25 -18.18, -191.51 -21.82 M0.05 -0.08 C-31.91 -3.53, -159.92 -17.29, -192.2 -20.58" stroke="#1e1e1e" stroke-width="2" fill="none"></path></g><g transform="translate(504.532479301943 350.8626682065716) rotate(0 -95.99886153003143 -10.617389355353737)"><path d="M-167.94 -26.63 C-173.6 -23.95, -182.33 -24.02, -192.2 -20.58 M-167.94 -26.63 C-175.99 -24.38, -182.45 -23.98, -192.2 -20.58" stroke="#1e1e1e" stroke-width="2" fill="none"></path></g><g transform="translate(504.532479301943 350.8626682065716) rotate(0 -95.99886153003143 -10.617389355353737)"><path d="M-169.73 -9.62 C-174.88 -11.66, -183.12 -16.43, -192.2 -20.58 M-169.73 -9.62 C-177.18 -12.55, -183.08 -17.34, -192.2 -20.58" stroke="#1e1e1e" stroke-width="2" fill="none"></path></g></g><mask></mask><g transform="translate(10.93199430349864 316.2813200231619) rotate(0 148.90982055664062 12.5)"><text x="0" y="17.52" font-family="Virgil, Segoe UI Emoji" font-size="20px" fill="#1e1e1e" text-anchor="start" style="white-space: pre;" direction="ltr" dominant-baseline="alphabetic">images/classification/no_class</text></g><g mask="url(#mask-jzZh6r0ZE51ZrIv9s1UK0)" stroke-linecap="round"><g transform="translate(929.3959283458682 675.00649662125) rotate(0 2.5854655765708685 71.40110310148782)"><path d="M1.19 -0.35 C1.73 12.58, 2.35 52.58, 3.13 76.57 C3.91 100.57, 5.67 132.74, 5.87 143.62 M0.36 -1.58 C0.71 11.09, 1.18 50.9, 2.03 74.79 C2.88 98.67, 5.11 130.43, 5.47 141.71" stroke="#1e1e1e" stroke-width="2" fill="none"></path></g><g transform="translate(929.3959283458682 675.00649662125) rotate(0 2.5854655765708685 71.40110310148782)"><path d="M-4.23 118.67 C-2.16 124.87, 2.36 133.32, 5.47 141.71 M-4.23 118.67 C-0.71 128.18, 1.79 134.8, 5.47 141.71" stroke="#1e1e1e" stroke-width="2" fill="none"></path></g><g transform="translate(929.3959283458682 675.00649662125) rotate(0 2.5854655765708685 71.40110310148782)"><path d="M12.85 117.82 C9.88 124.44, 9.36 133.14, 5.47 141.71 M12.85 117.82 C10.07 127.51, 6.28 134.45, 5.47 141.71" stroke="#1e1e1e" stroke-width="2" fill="none"></path></g></g><mask id="mask-jzZh6r0ZE51ZrIv9s1UK0"><rect x="0" y="0" fill="#fff" width="1034.56685949901" height="917.8087028242256"></rect><rect x="827.3685232215687" y="725.9400469539708" fill="#000" width="210.9197540283203" height="50" opacity="1"></rect></mask><g transform="translate(827.3685232215689 725.9400469539705) rotate(0 105.14266722895081 20.085759741535654)"><text x="105.45987701416016" y="17.52" font-family="Virgil, Segoe UI Emoji" font-size="20px" fill="#1e1e1e" text-anchor="middle" style="white-space: pre;" direction="ltr" dominant-baseline="alphabetic">images/cropped_scale</text><text x="105.45987701416016" y="42.519999999999996" font-family="Virgil, Segoe UI Emoji" font-size="20px" fill="#1e1e1e" text-anchor="middle" style="white-space: pre;" direction="ltr" dominant-baseline="alphabetic">s/random</text></g><g transform="translate(521.7155640819544 1025.0555635964197) rotate(0 77.5399169921875 12.5)"><text x="0" y="17.52" font-family="Virgil, Segoe UI Emoji" font-size="20px" fill="#1e1e1e" text-anchor="start" style="white-space: pre;" direction="ltr" dominant-baseline="alphabetic">6. Segmentation</text></g><g stroke-linecap="round" transform="translate(488.03124169572516 984.6343767329445) rotate(0 113.85300966545526 53.89491581796699)"><path d="M133.76 0.52 C147.43 0.63, 161.86 4.36, 173.91 8.16 C185.96 11.96, 197.56 17.64, 206.07 23.32 C214.58 28.99, 221.6 35.56, 224.99 42.22 C228.38 48.88, 228.88 56.6, 226.43 63.3 C223.97 70.01, 217.96 76.79, 210.29 82.42 C202.61 88.06, 192.3 93.21, 180.37 97.12 C168.44 101.03, 153.01 104.35, 138.71 105.86 C124.42 107.36, 108.99 107.2, 94.6 106.16 C80.2 105.11, 64.78 103.02, 52.34 99.59 C39.9 96.15, 28.19 91.16, 19.96 85.53 C11.73 79.91, 6.08 72.72, 2.97 65.83 C-0.14 58.94, -1.14 51.07, 1.32 44.19 C3.77 37.31, 10.04 30.19, 17.7 24.55 C25.35 18.91, 35.43 14.3, 47.25 10.36 C59.08 6.42, 73.78 2.44, 88.64 0.89 C103.5 -0.65, 127.69 0.8, 136.38 1.07 C145.07 1.33, 141.06 1.5, 140.78 2.49 M95.34 0.74 C108.34 -1.05, 125.81 -1.06, 140.24 0.78 C154.66 2.62, 170.28 7.39, 181.89 11.78 C193.5 16.17, 202.68 21.56, 209.9 27.11 C217.12 32.67, 222.86 38.63, 225.23 45.09 C227.59 51.54, 227.12 58.88, 224.07 65.85 C221.01 72.83, 215.31 81.19, 206.89 86.94 C198.47 92.69, 186.1 97.17, 173.53 100.35 C160.96 103.54, 145.85 105.13, 131.46 106.04 C117.07 106.96, 101.6 107.07, 87.18 105.86 C72.75 104.64, 56.81 103, 44.91 98.76 C33.01 94.52, 23.01 86.53, 15.77 80.39 C8.54 74.26, 3.48 68.29, 1.5 61.96 C-0.48 55.62, 0.62 49.22, 3.92 42.41 C7.21 35.6, 12.68 26.69, 21.27 21.1 C29.85 15.51, 42.8 12.11, 55.43 8.87 C68.06 5.63, 89.88 2.99, 97.03 1.66 C104.18 0.34, 97.98 0.13, 98.34 0.91" stroke="#1e1e1e" stroke-width="2" fill="none"></path></g><g mask="url(#mask-_wBpS6cv0x4mZSHuMixJ5)" stroke-linecap="round"><g transform="translate(329.0412400327225 673.3912378841851) rotate(0 79.49500083150127 177.85322219929108)"><path d="M0.15 -0.44 C8.95 31.5, 26.97 133.37, 53.27 192.59 C79.56 251.8, 140.46 327.49, 157.91 354.86 M-1.24 -1.71 C7.43 30.33, 25.79 134.5, 52.7 194.08 C79.61 253.65, 142.74 328.95, 160.24 355.73" stroke="#1e1e1e" stroke-width="2" fill="none"></path></g><g transform="translate(329.0412400327225 673.3912378841851) rotate(0 79.49500083150127 177.85322219929108)"><path d="M139.49 341.79 C145.85 347.65, 153.41 349.34, 160.24 355.73 M139.49 341.79 C143.35 345, 149.34 348.77, 160.24 355.73" stroke="#1e1e1e" stroke-width="2" fill="none"></path></g><g transform="translate(329.0412400327225 673.3912378841851) rotate(0 79.49500083150127 177.85322219929108)"><path d="M153.31 331.71 C155.1 340.98, 158.02 346.06, 160.24 355.73 M153.31 331.71 C153.91 337.36, 156.73 343.45, 160.24 355.73" stroke="#1e1e1e" stroke-width="2" fill="none"></path></g></g><mask id="mask-_wBpS6cv0x4mZSHuMixJ5"><rect x="0" y="0" fill="#fff" width="588.031241695725" height="1129.0976822827672"></rect><rect x="276.1289059410801" y="841.065561933417" fill="#000" width="210.9197540283203" height="50" opacity="1"></rect></mask><g transform="translate(276.1289059410801 841.0655619334171) rotate(0 132.4127008188471 9.336049650567304)"><text x="105.45987701416016" y="17.52" font-family="Virgil, Segoe UI Emoji" font-size="20px" fill="#1e1e1e" text-anchor="middle" style="white-space: pre;" direction="ltr" dominant-baseline="alphabetic">images/cropped_scale</text><text x="105.45987701416016" y="42.519999999999996" font-family="Virgil, Segoe UI Emoji" font-size="20px" fill="#1e1e1e" text-anchor="middle" style="white-space: pre;" direction="ltr" dominant-baseline="alphabetic">s/fixed</text></g><g mask="url(#mask-WWTlJeJiNgZbcHh6oUOhk)" stroke-linecap="round"><g transform="translate(936.7064158803003 887.6235282606038) rotate(0 -107.78983163593398 67.36864477245877)"><path d="M0.67 -0.48 C-13.92 13.38, -51.36 61.51, -87.4 84.13 C-123.45 106.75, -194.07 126.72, -215.61 135.24 M-0.44 -1.78 C-15.09 12.14, -51.75 62.79, -87.74 85.28 C-123.73 107.77, -194.86 125.21, -216.39 133.15" stroke="#1e1e1e" stroke-width="2" fill="none"></path></g><g transform="translate(936.7064158803003 887.6235282606038) rotate(0 -107.78983163593398 67.36864477245877)"><path d="M-196.55 117.95 C-203.36 124.69, -209.94 127.41, -216.39 133.15 M-196.55 117.95 C-202.93 123.43, -210.55 129.03, -216.39 133.15" stroke="#1e1e1e" stroke-width="2" fill="none"></path></g><g transform="translate(936.7064158803003 887.6235282606038) rotate(0 -107.78983163593398 67.36864477245877)"><path d="M-191.42 134.26 C-199.94 135.99, -208.11 133.67, -216.39 133.15 M-191.42 134.26 C-199.4 134.2, -208.78 134.22, -216.39 133.15" stroke="#1e1e1e" stroke-width="2" fill="none"></path></g></g><mask id="mask-WWTlJeJiNgZbcHh6oUOhk"><rect x="0" y="0" fill="#fff" width="1252.2860791521682" height="1122.3608178055215"></rect><rect x="742.6809501590881" y="947.5080206739019" fill="#000" width="210.9197540283203" height="50" opacity="1"></rect></mask><g transform="translate(742.6809501590883 947.508020673902) rotate(0 86.16477638919184 6.843725639524962)"><text x="105.45987701416016" y="17.52" font-family="Virgil, Segoe UI Emoji" font-size="20px" fill="#1e1e1e" text-anchor="middle" style="white-space: pre;" direction="ltr" dominant-baseline="alphabetic">images/cropped_scale</text><text x="105.45987701416016" y="42.519999999999996" font-family="Virgil, Segoe UI Emoji" font-size="20px" fill="#1e1e1e" text-anchor="middle" style="white-space: pre;" direction="ltr" dominant-baseline="alphabetic">/random</text></g><g transform="translate(1080.875315693362 663.9596276160408) rotate(0 158.1098175048828 12.5)"><text x="0" y="17.52" font-family="Virgil, Segoe UI Emoji" font-size="20px" fill="#e03131" text-anchor="start" style="white-space: pre;" direction="ltr" dominant-baseline="alphabetic">- TEST: with new classify model</text></g><g transform="translate(82.70924982799886 1147.5931022023733) rotate(0 683.1785278320312 227.39416243058173)"><text x="0" y="17.706425447927966" font-family="Virgil, Segoe UI Emoji" font-size="20.21281443827393px" fill="#1e1e1e" text-anchor="start" style="white-space: pre;" direction="ltr" dominant-baseline="alphabetic">    6.1 Segemntation model generates boxes and masks</text><text x="0" y="42.97244349577038" font-family="Virgil, Segoe UI Emoji" font-size="20.21281443827393px" fill="#1e1e1e" text-anchor="start" style="white-space: pre;" direction="ltr" dominant-baseline="alphabetic"></text><text x="0" y="68.2384615436128" font-family="Virgil, Segoe UI Emoji" font-size="20.21281443827393px" fill="#1e1e1e" text-anchor="start" style="white-space: pre;" direction="ltr" dominant-baseline="alphabetic">    6.2 Find the dominant color in the image (returns dominant color + image where dominant color is (255, 255, 255)</text><text x="0" y="93.50447959145522" font-family="Virgil, Segoe UI Emoji" font-size="20.21281443827393px" fill="#1e1e1e" text-anchor="start" style="white-space: pre;" direction="ltr" dominant-baseline="alphabetic"></text><text x="0" y="118.77049763929763" font-family="Virgil, Segoe UI Emoji" font-size="20.21281443827393px" fill="#1e1e1e" text-anchor="start" style="white-space: pre;" direction="ltr" dominant-baseline="alphabetic">    6.3a Measure fixed scale images via colorboard (returns pixels per cm for that image)</text><text x="0" y="144.03651568714002" font-family="Virgil, Segoe UI Emoji" font-size="20.21281443827393px" fill="#1e1e1e" text-anchor="start" style="white-space: pre;" direction="ltr" dominant-baseline="alphabetic">    6.3b Measure random scale images via largest square contour algorithm (returns pixels per cm for that image)</text><text x="0" y="169.30253373498246" font-family="Virgil, Segoe UI Emoji" font-size="20.21281443827393px" fill="#1e1e1e" text-anchor="start" style="white-space: pre;" direction="ltr" dominant-baseline="alphabetic"></text><text x="0" y="194.56855178282487" font-family="Virgil, Segoe UI Emoji" font-size="20.21281443827393px" fill="#1e1e1e" text-anchor="start" style="white-space: pre;" direction="ltr" dominant-baseline="alphabetic">    6.4 Loop over the masks (if there is more than 1) (returns list with tupels of mask, cm² of that mask)</text><text x="0" y="219.83456983066728" font-family="Virgil, Segoe UI Emoji" font-size="20.21281443827393px" fill="#1e1e1e" text-anchor="start" style="white-space: pre;" direction="ltr" dominant-baseline="alphabetic"></text><text x="0" y="245.10058787850969" font-family="Virgil, Segoe UI Emoji" font-size="20.21281443827393px" fill="#1e1e1e" text-anchor="start" style="white-space: pre;" direction="ltr" dominant-baseline="alphabetic">    6.5 Loop over the boxes and get the height and width in cm (returns list with tupel of box, and a dict of width_cm and height_cm)</text><text x="0" y="270.3666059263521" font-family="Virgil, Segoe UI Emoji" font-size="20.21281443827393px" fill="#1e1e1e" text-anchor="start" style="white-space: pre;" direction="ltr" dominant-baseline="alphabetic"></text><text x="0" y="295.63262397419453" font-family="Virgil, Segoe UI Emoji" font-size="20.21281443827393px" fill="#1e1e1e" text-anchor="start" style="white-space: pre;" direction="ltr" dominant-baseline="alphabetic">    6.6 Crop and mask out the images (returns list with tupel of masked out image and cropped out image)</text><text x="0" y="320.898642022037" font-family="Virgil, Segoe UI Emoji" font-size="20.21281443827393px" fill="#1e1e1e" text-anchor="start" style="white-space: pre;" direction="ltr" dominant-baseline="alphabetic"></text><text x="0" y="346.1646600698794" font-family="Virgil, Segoe UI Emoji" font-size="20.21281443827393px" fill="#1e1e1e" text-anchor="start" style="white-space: pre;" direction="ltr" dominant-baseline="alphabetic">    6.7 Images are saved in RGBA format, where every pixel that is &gt;= 250 is being turned into a transparant pixel</text><text x="0" y="371.4306781177218" font-family="Virgil, Segoe UI Emoji" font-size="20.21281443827393px" fill="#1e1e1e" text-anchor="start" style="white-space: pre;" direction="ltr" dominant-baseline="alphabetic"></text><text x="0" y="396.6966961655642" font-family="Virgil, Segoe UI Emoji" font-size="20.21281443827393px" fill="#1e1e1e" text-anchor="start" style="white-space: pre;" direction="ltr" dominant-baseline="alphabetic">    6.8 Cm² is calculated again for the RGBA image so it doesn't take into account the white pixels (which it did before)</text><text x="0" y="421.9627142134066" font-family="Virgil, Segoe UI Emoji" font-size="20.21281443827393px" fill="#1e1e1e" text-anchor="start" style="white-space: pre;" direction="ltr" dominant-baseline="alphabetic"></text><text x="0" y="447.22873226124904" font-family="Virgil, Segoe UI Emoji" font-size="20.21281443827393px" fill="#1e1e1e" text-anchor="start" style="white-space: pre;" direction="ltr" dominant-baseline="alphabetic"></text></g><g transform="translate(655.0921788198907 1149.3229147424922) rotate(0 181.11083984375 12.633009023921204)"><text x="0" y="17.706425447927966" font-family="Virgil, Segoe UI Emoji" font-size="20.21281443827393px" fill="#e03131" text-anchor="start" style="white-space: pre;" direction="ltr" dominant-baseline="alphabetic">- TODO: improve segmentation model</text></g><g transform="translate(407.1744030698111 1666.3988197063677) rotate(0 267.44970703124994 12.5)"><text x="0" y="17.52" font-family="Virgil, Segoe UI Emoji" font-size="20px" fill="#e03131" text-anchor="start" style="white-space: pre;" direction="ltr" dominant-baseline="alphabetic">7. Improve cm² calculation by filling in tapes on plants</text></g><g stroke-linecap="round" transform="translate(358.48576143706384 1625.2839667720477) rotate(0 313.7712460777046 53.01652088899141)"><path d="M368.39 1.07 C394.74 0.74, 421.9 1.98, 446.43 3.97 C470.95 5.96, 494.88 9.87, 515.54 13.02 C536.2 16.16, 555.05 19.2, 570.4 22.85 C585.75 26.49, 598.39 30.68, 607.62 34.9 C616.86 39.12, 623.33 43.48, 625.81 48.16 C628.28 52.83, 627.12 58.35, 622.48 62.94 C617.85 67.53, 609.36 71.72, 597.99 75.68 C586.61 79.65, 571.51 83.16, 554.23 86.71 C536.96 90.27, 516.5 94.47, 494.35 97.03 C472.19 99.59, 446.79 100.5, 421.28 102.09 C395.77 103.67, 368.44 105.88, 341.3 106.54 C314.15 107.19, 285 106.8, 258.42 106.01 C231.84 105.22, 206.18 104.03, 181.81 101.81 C157.45 99.58, 132.97 95.73, 112.24 92.65 C91.51 89.58, 73.05 87.05, 57.43 83.37 C41.82 79.69, 27.84 74.92, 18.57 70.58 C9.3 66.25, 4.09 61.97, 1.8 57.36 C-0.49 52.75, 0.36 47.27, 4.85 42.91 C9.33 38.55, 17.44 35.25, 28.71 31.21 C39.98 27.18, 55.05 22.42, 72.46 18.7 C89.86 14.97, 110.75 11.32, 133.13 8.86 C155.51 6.41, 181.2 5.5, 206.72 3.99 C232.23 2.47, 256.5 0.17, 286.22 -0.23 C315.94 -0.64, 366.36 1.12, 385.04 1.58 C403.72 2.04, 399.42 1.75, 398.28 2.52 M262.03 -0.44 C286.7 -2.43, 318.34 -1.52, 345.31 -0.93 C372.28 -0.34, 398.82 1.09, 423.85 3.09 C448.88 5.09, 473.26 8.21, 495.51 11.05 C517.76 13.89, 539.76 16.57, 557.34 20.15 C574.92 23.74, 589.79 28.73, 600.97 32.56 C612.16 36.39, 620.53 38.79, 624.47 43.13 C628.41 47.47, 627.26 54.06, 624.61 58.6 C621.95 63.15, 618 66.37, 608.57 70.39 C599.14 74.42, 584.18 78.73, 568.03 82.77 C551.88 86.81, 532.67 91.64, 511.66 94.62 C490.66 97.61, 466.65 98.75, 442.01 100.69 C417.37 102.63, 390.53 105.64, 363.83 106.25 C337.13 106.86, 308.65 104.99, 281.82 104.37 C255 103.75, 228.06 103.79, 202.88 102.56 C177.7 101.32, 152.68 99.55, 130.75 96.96 C108.81 94.36, 88.54 90.9, 71.26 87 C53.98 83.1, 38.46 77.79, 27.07 73.55 C15.68 69.3, 7.35 65.61, 2.94 61.51 C-1.46 57.42, -2.43 53.77, 0.65 48.99 C3.73 44.21, 11.87 37.37, 21.43 32.85 C31 28.33, 42.38 25.3, 58.06 21.87 C73.73 18.45, 94.3 15.28, 115.48 12.32 C136.66 9.35, 160.59 6.08, 185.12 4.07 C209.66 2.07, 249.76 0.8, 262.7 0.27 C275.64 -0.25, 262.15 -0.14, 262.77 0.91" stroke="#e03131" stroke-width="2" fill="none"></path></g><g transform="translate(366.0595501354911 1865.4812654936009) rotate(0 341.3296508789062 12.5)"><text x="0" y="17.52" font-family="Virgil, Segoe UI Emoji" font-size="20px" fill="#e03131" text-anchor="start" style="white-space: pre;" direction="ltr" dominant-baseline="alphabetic">8. Start with more precise segmentation (leafes, stems, roots, etc...</text></g><g stroke-linecap="round" transform="translate(334.6824255277206 1822.2024729311584) rotate(0 374.36155566512343 54.09849070305256)"><path d="M286.67 0.98 C311.76 -0.77, 342.86 0.29, 371.64 0.24 C400.43 0.2, 431.17 -0.18, 459.39 0.69 C487.61 1.56, 515.17 3.48, 540.97 5.45 C566.76 7.42, 592.24 9.68, 614.16 12.52 C636.07 15.36, 655.3 19.02, 672.46 22.48 C689.63 25.93, 705.53 29.68, 717.13 33.23 C728.74 36.77, 736.97 39.81, 742.1 43.75 C747.23 47.68, 749.17 52.65, 747.9 56.83 C746.64 61.02, 742.64 64.91, 734.51 68.86 C726.39 72.81, 713.74 76.89, 699.17 80.52 C684.6 84.14, 666.76 87.57, 647.1 90.6 C627.43 93.64, 604.93 96.31, 581.19 98.73 C557.44 101.14, 531.41 103.68, 504.63 105.1 C477.85 106.53, 449.22 106.81, 420.51 107.26 C391.8 107.71, 361.16 108.16, 332.36 107.8 C303.56 107.44, 274.68 106.56, 247.71 105.1 C220.74 103.64, 194.69 101.28, 170.57 99.06 C146.46 96.84, 122.83 94.74, 103.02 91.79 C83.22 88.83, 66.31 84.9, 51.74 81.33 C37.17 77.75, 24.17 74.26, 15.59 70.33 C7 66.4, 1.86 61.88, 0.24 57.75 C-1.37 53.61, 0.94 49.77, 5.89 45.54 C10.84 41.3, 18.79 36.24, 29.94 32.33 C41.1 28.43, 55.68 25.51, 72.84 22.11 C90 18.7, 111 14.5, 132.9 11.89 C154.8 9.28, 177.82 8.13, 204.23 6.44 C230.64 4.75, 275.5 2.33, 291.37 1.74 C307.25 1.14, 298.02 2.16, 299.5 2.86 M525.13 4 C552.8 4.8, 577.85 9.07, 601.05 11.53 C624.25 14, 646.23 15.89, 664.33 18.79 C682.43 21.69, 696.96 25.2, 709.66 28.95 C722.35 32.7, 733.88 36.88, 740.48 41.3 C747.08 45.71, 749.65 50.99, 749.25 55.43 C748.85 59.88, 744.98 63.92, 738.07 67.98 C731.16 72.05, 721.2 76.19, 707.79 79.81 C694.37 83.42, 676.39 86.56, 657.57 89.69 C638.75 92.82, 617.82 96.32, 594.87 98.58 C571.92 100.84, 546.45 101.93, 519.86 103.26 C493.28 104.59, 463.82 105.76, 435.36 106.56 C406.91 107.36, 377.91 108.27, 349.16 108.04 C320.4 107.82, 290.51 106.19, 262.85 105.19 C235.18 104.19, 208 104.18, 183.17 102.06 C158.34 99.95, 134.23 95.55, 113.85 92.49 C93.48 89.43, 76.29 86.87, 60.92 83.7 C45.55 80.53, 31.47 77.63, 21.61 73.48 C11.75 69.34, 5.06 63.41, 1.76 58.85 C-1.54 54.29, -2.11 49.99, 1.81 46.13 C5.72 42.26, 14.76 39.53, 25.27 35.65 C35.78 31.77, 49.05 26.64, 64.86 22.85 C80.67 19.06, 99.33 15.57, 120.12 12.92 C140.91 10.27, 164.51 8.84, 189.59 6.94 C214.67 5.04, 242.61 2.85, 270.59 1.52 C298.58 0.19, 328.5 -0.93, 357.48 -1.03 C386.45 -1.13, 416.21 0.16, 444.44 0.93 C472.68 1.7, 513.73 2.58, 526.88 3.56 C540.03 4.54, 526.06 5.99, 523.32 6.79" stroke="#e03131" stroke-width="2" fill="none"></path></g><g transform="translate(1290.1633367474753 1241.2605435836651) rotate(0 213.5997619628905 25)"><text x="0" y="17.52" font-family="Virgil, Segoe UI Emoji" font-size="20px" fill="#e03131" text-anchor="start" style="white-space: pre;" direction="ltr" dominant-baseline="alphabetic">- TODO: improve measuring via colorboard, </text><text x="0" y="42.519999999999996" font-family="Virgil, Segoe UI Emoji" font-size="20px" fill="#e03131" text-anchor="start" style="white-space: pre;" direction="ltr" dominant-baseline="alphabetic">    not all boards are always detected</text></g><g mask="url(#mask-qGiN792TFxnxfW3iu1PoZ)" stroke-linecap="round"><g transform="translate(627.3014988354466 88.52068526192045) rotate(0 0 108.75000000000006)"><path d="M0.44 0.37 C0.56 36.61, 0.13 181.56, 0.24 217.67 M-0.79 -0.48 C-0.76 35.96, -0.86 182.86, -0.59 219.3" stroke="#1e1e1e" stroke-width="2" fill="none"></path></g><g transform="translate(627.3014988354466 88.52068526192045) rotate(0 0 108.75000000000006)"><path d="M-9.2 195.83 C-6.31 202.28, -4.41 209.71, -0.59 219.3 M-9.2 195.83 C-7.09 202.35, -5.46 208.87, -0.59 219.3" stroke="#1e1e1e" stroke-width="2" fill="none"></path></g><g transform="translate(627.3014988354466 88.52068526192045) rotate(0 0 108.75000000000006)"><path d="M7.9 195.78 C6.36 202.3, 3.82 209.75, -0.59 219.3 M7.9 195.78 C5.51 202.19, 2.63 208.72, -0.59 219.3" stroke="#1e1e1e" stroke-width="2" fill="none"></path></g></g><mask id="mask-qGiN792TFxnxfW3iu1PoZ"><rect x="0" y="0" fill="#fff" width="727.3014988354466" height="406.02068526192056"></rect><rect x="534.7016148022435" y="184.7706852619205" fill="#000" width="185.19976806640625" height="25" opacity="1"></rect></mask><g transform="translate(534.7016148022435 184.7706852619205) rotate(0 92.4366425385017 13.158364233179014)"><text x="92.59988403320312" y="17.52" font-family="Virgil, Segoe UI Emoji" font-size="20px" fill="#1e1e1e" text-anchor="middle" style="white-space: pre;" direction="ltr" dominant-baseline="alphabetic">images/gbif_images</text></g></svg>